# xmcd CD database file
#
# Track frame offsets:
#	150
#	49073
#	78601
#	115906
#	150444
#	199622
#
# Disc length: 3149 seconds
#
# Revision: 0
# Processed by: cddbd v1.5.2PL0 Copyright (c) Steve Scherf et al.
# Submitted via: CDex 1.51
#
DISCID=430c4b06
DTITLE=Franko and the Gaya Tree - Enchant
DYEAR=1900
DGENRE=New Age
TTITLE0=Tu HiHai
TTITLE1=Baba Hanuman
TTITLE2=Om Namo Namah Shiva
TTITLE3=Pure
TTITLE4=Om Bhuagavate
TTITLE5=Bomus: Guided Relaxation
EXTD=
EXTT0=
EXTT1=
EXTT2=
EXTT3=
EXTT4=
EXTT5=
PLAYORDER=
